<?xml version="1.0"?>
<svg width="28.000000139077507" height="28" xmlns="http://www.w3.org/2000/svg" xmlns:svg="http://www.w3.org/2000/svg">
 <g>
  <title>Layer 1</title>
  <g stroke="null" id="svg_1" transform="scale(0.02734375) " fill="#444">
   <path stroke="null" id="svg_2" d="m352.312378,472.092957l162.953735,-117.619446l162.953857,117.619446l-61.888672,190.000854l-201.562897,0l-62.456024,-190.000854zm162.953735,-461.431014q103.336609,0 197.588501,40.148574t162.386414,108.006607t108.446838,161.727371t40.312134,196.786438t-40.312134,196.786499t-108.446838,161.727417t-162.386414,108.006592t-197.588501,40.14856t-197.588409,-40.14856t-162.386444,-108.006592t-108.446754,-161.727417t-40.312186,-196.786499t40.312186,-196.786438t108.446754,-161.727371t162.386444,-108.006607t197.588409,-40.148574zm351.457581,763.396895q84.599854,-114.792236 84.599854,-256.727905l0,-1.696106l-57.914124,50.327454l-136.268188,-126.667206l35.770386,-182.649261l76.082458,6.785614q-85.167175,-116.488358 -220.867859,-159.465179l30.092712,70.119247l-162.953796,89.910995l-162.953766,-89.910995l30.092773,-70.119247q-135.699799,42.976822 -220.867996,159.465179l76.650879,-6.785614l35.203018,182.649261l-136.268173,126.667206l-57.914169,-50.327454l0,1.696106q0,141.935669 84.599854,256.727905l17.033646,-74.643677l185.097641,22.618958l78.922302,168.513l-65.863159,39.018494q66.430542,22.054016 136.268127,22.054016t136.268188,-22.054016l-65.863159,-39.018494l78.922241,-168.513l185.097656,-22.618958l17.032654,74.643677z"/>
  </g>
  <text xml:space="preserve" text-anchor="middle" font-family="serif" font-size="24" id="svg_4" y="16.975727" x="8.180936" stroke-width="0" stroke="#000000" fill="#000000"/>
  <rect id="svg_5" height="0" width="0.075085" y="3.685737" x="10.883984" stroke-width="5" stroke="#000000" fill="#000000"/>
  <rect id="svg_7" height="0.150169" width="0" y="10.893867" x="5.027379" stroke-width="5" stroke="#000000" fill="#000000"/>
  <text stroke="#3f007f" transform="matrix(0.22621565875906668,0,0,0.2500165982138398,-2.551199160506524,1.5716861160585953) " xml:space="preserve" text-anchor="middle" font-family="serif" font-size="24" id="svg_8" y="58.6117" x="72.69344" stroke-width="0" fill="#3f007f">RR</text>
  <text id="svg_9" stroke="#3f007f" transform="rotate(-111.03143310546875 24.146043777465824,10.703114509582523) matrix(0.22621565875906668,0,0,0.2500165982138398,-2.551199160506524,1.5716861160585953) " xml:space="preserve" text-anchor="middle" font-family="serif" font-size="24" y="43.928404" x="118.031722" stroke-width="0" fill="#3f007f">RR</text>
  <text id="svg_10" stroke="#3f007f" transform="rotate(-178.63699340820312 13.707557678222656,3.2712738513946533) matrix(0.22621565875906668,0,0,0.2500165982138398,-2.551199160506524,1.5716861160585953) " xml:space="preserve" text-anchor="middle" font-family="serif" font-size="24" y="14.196842" x="71.895343" stroke-width="0" fill="#3f007f">RR</text>
  <text id="svg_11" stroke="#3f007f" transform="rotate(34.74758529663086 7.627699851989734,22.9445972442627) matrix(0.22621565875906668,0,0,0.2500165982138398,-2.551199160506524,1.5716861160585953) " xml:space="preserve" text-anchor="middle" font-family="serif" font-size="24" y="92.880369" x="45.010115" stroke-width="0" fill="#3f007f">RR</text>
  <text id="svg_12" stroke="#3f007f" transform="rotate(-41.62602233886719 20.468271255493164,23.017257690429688) matrix(0.22621565875906668,0,0,0.2500165982138398,-2.551199160506524,1.5716861160585953) " xml:space="preserve" text-anchor="middle" font-family="serif" font-size="24" y="93.180688" x="101.767818" stroke-width="0" fill="#3f007f">RR</text>
  <text id="svg_13" stroke="#3f007f" transform="rotate(109.10698699951172 3.648678779602051,10.703781127929688) matrix(0.22621565875906668,0,0,0.2500165982138398,-2.551199160506524,1.5716861160585953) " xml:space="preserve" text-anchor="middle" font-family="serif" font-size="24" y="43.928404" x="27.418546" stroke-width="0" fill="#3f007f">RR</text>
 </g>
</svg>