<svg xmlns="http://www.w3.org/2000/svg" xmlns:xlink="http://www.w3.org/1999/xlink" width="210mm" height="297mm" viewBox="0 0 744.09448819 1052.3622047"><defs><linearGradient id="a"><stop offset="0" stop-color="#ffe51a"/><stop offset="1" stop-color="#e60000" stop-opacity="0"/></linearGradient><linearGradient id="b"><stop offset="0" stop-color="#fff"/><stop offset="1" stop-opacity=".478"/></linearGradient></defs><text style="line-height:125%;-inkscape-font-specification:'Bevan, Normal';text-align:start" x="-485.462" y="608.147" transform="scale(.97528 1.02534)" font-weight="400" font-size="7.302" font-family="Bevan" letter-spacing="0" word-spacing="0"/><flowRoot xml:space="preserve" style="line-height:125%;-inkscape-font-specification:'Bevan, Normal';text-align:start" transform="matrix(.51156 0 0 .53782 1940.505 1417.69)" font-style="normal" font-variant="normal" font-weight="400" font-stretch="normal" font-size="13.921" font-family="Bevan" letter-spacing="0" word-spacing="0" writing-mode="lr-tb" text-anchor="start" fill="#000" fill-opacity="1" stroke="none" stroke-width="1" stroke-linecap="butt" stroke-linejoin="miter" stroke-opacity="1"><flowRegion><path d="M-5519.273-1840.666h147.245v208.82h-147.245z"/></flowRegion><flowPara/></flowRoot><flowRoot xml:space="preserve" style="line-height:125%;-inkscape-font-specification:'Bevan, Normal';text-align:start" transform="matrix(1.1482 0 0 1.8632 101.898 -634.578)" font-style="normal" font-variant="normal" font-weight="400" font-stretch="normal" font-size="58.515" font-family="Bevan" letter-spacing="0" word-spacing="0" writing-mode="lr-tb" text-anchor="start" fill="#fff" fill-opacity="1" stroke="#000" stroke-width="3.12" stroke-linecap="butt" stroke-linejoin="miter" stroke-miterlimit="4" stroke-dasharray="none" stroke-opacity="1"><flowRegion><use xlink:href="#c" width="100%" height="100%" transform="matrix(.87092 0 0 .5367 -623.226 373.67)"/></flowRegion><flowPara>REDWATER</flowPara></flowRoot><path d="M360.14 181.012c-3.862 4.42-13.253 17.365-16.442 20.367-84.92 79.96-183.21 22.28-193.483 17.524-6.988-3.235-7.91-5.712-12.463 2.594-4.554 8.305-55.96 124.262-57.61 128.127-1.647 3.865-1.45 7.28 1.29 10.47 3.908 4.542 12.644 14.752 30.787 38.57 18.14 23.82 14.508 47.338 8.756 80.56-5.75 33.22-19.793 95.844-21.808 105.894-23.575 117.553 52.854 190.045 101.375 216.198 40.7 21.937 157.18 71.38 160.734 72.857 3.315 1.38 9.76 3.127 11.1 3.413 1.34-.302 7.125-2.05 10.44-3.43 3.555-1.477 120.035-50.918 160.735-72.856 48.52-26.153 124.95-98.645 101.375-216.2-2.016-10.05-16.057-72.672-21.81-105.894-5.75-33.22-9.383-56.74 8.76-80.558 18.14-23.818 26.878-34.03 30.784-38.57 2.744-3.19 2.94-6.605 1.29-10.47-1.647-3.866-53.054-119.823-57.607-128.128-4.554-8.306-5.476-5.83-12.463-2.594-10.273 4.755-108.562 62.435-193.484-17.525-3.188-3.002-12.58-15.947-16.44-20.366-3.86-4.42-5.935-5.89-11.91-6.395-5.972.52-8.047 1.99-11.907 6.41z" fill="#ff2a2a" fill-rule="evenodd" stroke="#000" stroke-width="17.1"/><text transform="matrix(.8421 0 0 1.18752 770.635 336.406)" y="168.62" x="-751.997" style="line-height:125%;-inkscape-font-specification:'Bevan, Normal';text-align:start" font-weight="400" font-size="82.234" font-family="Bevan" letter-spacing="0" word-spacing="0" fill="#fff" stroke="#000" stroke-width="5.23"><tspan y="168.62" x="-751.997">REDWATER</tspan></text><path d="M367.244 878.752c-1.1-.003-1.75-.25-3.04-.544" fill="none" stroke="#ff0" stroke-width="4.6"/><path d="M256.13 785.17l1.134-186.36H495.45l1.834 187.274L366.86 838.15c-4.394 5.15 7.423 6.847 2.174.248z" fill="#fff" fill-rule="evenodd" stroke="#fff" transform="matrix(.99995 0 0 1.0227 -3.854 15.986)"/><path d="M372.903 647.982l-16.327 31.232c-1.853 3.396-5.172 3.08-8.49 1.185l-11.82-6.28 8.81 47.973c1.85 8.766-4.093 8.766-7.026 4.976l-20.628-23.687-3.35 12.028c-.386 1.58-2.084 3.24-4.63 2.844l-26.086-5.624 6.852 25.546c1.466 5.686 2.61 8.04-1.48 9.54l-9.298 4.48 44.903 37.41c1.777 1.415 2.675 3.96 2.042 6.265l-3.93 13.23c15.46-1.828 29.322-3.464 44.783-5.29 1.373-.018 2.272.763 2.263 2.386l-2.76 48.878h12.35l-2.758-48.878c-.01-1.623.89-2.404 2.263-2.386 15.46 1.826 29.322 3.462 44.783 5.29l-3.93-13.23c-.633-2.304.265-4.85 2.042-6.264l44.903-37.41-9.297-4.48c-4.092-1.5-2.948-3.854-1.48-9.54l6.85-25.546-26.084 5.624c-2.548.395-4.246-1.263-4.632-2.843l-3.35-12.027-20.627 23.686c-2.933 3.79-8.877 3.79-7.025-4.977l8.81-47.972-11.82 6.28c-3.32 1.894-6.64 2.21-8.49-1.186" fill="red"/><path id="c" d="M99.418 555.438c-6.206 24.923-7.826 44.89-7.492 74.36l552.21-1.17c1.437-24.326-8.218-47.485-11.775-71.813z" fill="#fff" fill-rule="evenodd" stroke="#000" stroke-width=".197"/><text transform="matrix(.95893 0 0 1.04283 770.635 336.406)" y="270.41" x="-669.067" style="line-height:125%;-inkscape-font-specification:'Bevan, Normal';text-align:start" font-weight="400" font-size="62.349" font-family="Bevan" letter-spacing="0" word-spacing="0"><tspan y="270.41" x="-669.067" letter-spacing="27.453">ROCKETS</tspan></text><path d="M99.988 554.143l536.727-.39" fill-rule="evenodd" stroke="#000" stroke-width="14.259"/><g fill="#95f" fill-rule="evenodd" stroke="#95f" stroke-width="5" stroke-linejoin="round"><path d="M399.258 243.568l-2.74 68.494 45.205 15.068 4.11-64.383zM507.477 270.966l-2.74 67.123 46.576-1.37 1.37-71.234zM347.04 244.29l2.74 68.493-45.206 15.07-4.11-64.385zM238.82 271.687l2.74 67.124-46.575-1.37-1.37-71.232z"/></g><path d="M360.14 181.012c-3.862 4.42-13.253 17.365-16.442 20.367-84.92 79.96-183.21 22.28-193.483 17.524-6.988-3.235-7.91-5.712-12.463 2.594-4.554 8.305-55.96 124.262-57.61 128.127-1.647 3.865-1.45 7.28 1.29 10.47 3.908 4.542 12.644 14.752 30.787 38.57 18.14 23.82 14.508 47.338 8.756 80.56-5.75 33.22-19.793 95.844-21.808 105.894-23.575 117.553 52.854 190.045 101.375 216.198 40.7 21.938 157.18 71.38 160.734 72.857 3.315 1.38 9.76 3.127 11.1 3.413 1.34-.302 7.125-2.05 10.44-3.429 3.555-1.48 120.035-50.92 160.735-72.858 48.52-26.153 124.95-98.645 101.375-216.2-2.016-10.05-16.057-72.672-21.81-105.894-5.75-33.22-9.383-56.74 8.76-80.558 18.14-23.818 26.878-34.03 30.784-38.57 2.744-3.19 2.94-6.605 1.29-10.47-1.647-3.866-53.054-119.823-57.607-128.128-4.554-8.305-5.476-5.828-12.463-2.594-10.273 4.755-108.562 62.435-193.484-17.525-3.188-3.002-12.58-15.947-16.44-20.366-3.86-4.42-5.935-5.89-11.91-6.395-5.972.52-8.047 1.99-11.907 6.41z" fill="none" stroke="#000" stroke-width="17.1"/><path d="M87.852 629.55h555.81" fill-rule="evenodd" stroke="#000" stroke-width="14.392"/><g><path d="M419.26-458.373c-118.664-18.33-227.788 82.954-227.08 205.637l398.78-4.32c3.765-100.934-74.517-186.305-171.7-201.317z" fill="#f9f9f9" fill-rule="evenodd" stroke="#000" stroke-width="12.3" transform="matrix(.79957 0 0 .8133 58.91 651.185)"/><path d="M266.124-387.437c-20.2 7.516-37.552 23.667-54.52 40.98M251.923-249.15c5.845-22.79 13.617-57.903 36.395-88.274" font-size="12" fill="none" stroke="#000" stroke-width="1.949" transform="matrix(.79957 0 0 .8133 58.91 651.185)"/><path d="M356.16-353.136c23.32 24.056 37.425 31.333 56.258 62.74M488.824-287.124c17.24-23.28 22.596-35.285 30.522-65.732M380.59-411.092c25.176-9.27 58.527-5.896 91.908-2.477M332.352-431.657c1.888-10.643 8.787-20.148 23.928-27.78" fill="none" stroke="#000" stroke-width="1.949" transform="matrix(.79957 0 0 .8133 58.91 651.185)"/><path d="M286.49 381.488c19.78-4.218 37.504-7.73 61.22-13.3 7.39-18.187 15.903-37.474 20.33-52.75-8.764-6.562-26.555-12.852-42.48-19.198-19.967 9.532-38.19 24.795-56.325 40.343 2.617 14.024 9.43 29.312 17.255 44.905zM377.606 440.43a5602.42 5602.42 0 0 1 11.013-28.314c21.928-2.966 42.98-.977 64.244-.187 6.146 8.695 9.188 18.63 11.56 28.83" fill-rule="evenodd"/><path d="M264.263-292.02l-64.162 6.643-6.132 31.128 82.656-.13zM471.546-414.112l47.914 62.13 41.788 12.867.49-21.323c-16.91-26.183-51.275-55.776-76.886-73.014z" fill-rule="evenodd" stroke="#000" transform="matrix(.79957 0 0 .8133 58.91 651.185)"/><path d="M559.42-339.6l20.102 22.875" fill="none" stroke="#000" stroke-width="1.9" transform="matrix(.79957 0 0 .8133 58.91 651.185)"/></g></svg>