<?xml version="1.0" encoding="utf-8"?><!DOCTYPE svg PUBLIC "-//W3C//DTD SVG 1.1//EN" "http://www.w3.org/Graphics/SVG/1.1/DTD/svg11.dtd"><svg version="1.1" xmlns="http://www.w3.org/2000/svg" xmlns:xlink="http://www.w3.org/1999/xlink" width="28.000000139077507" height="28" viewBox="0 0 28.000000139077507 28" data-code="61923" data-tags="futbol-o,soccer-ball-o"><g fill="#444" transform="scale(0.02734375 0.02734375)"><path d="M348 466.286l164-118.857 164 118.857-62.286 192h-202.857zM512 0q104 0 198.857 40.571t163.429 109.143 109.143 163.429 40.571 198.857-40.571 198.857-109.143 163.429-163.429 109.143-198.857 40.571-198.857-40.571-163.429-109.143-109.143-163.429-40.571-198.857 40.571-198.857 109.143-163.429 163.429-109.143 198.857-40.571zM865.714 771.429q85.143-116 85.143-259.429v-1.714l-58.286 50.857-137.143-128 36-184.571 76.571 6.857q-85.714-117.714-222.286-161.143l30.286 70.857-164 90.857-164-90.857 30.286-70.857q-136.571 43.429-222.286 161.143l77.143-6.857 35.429 184.571-137.143 128-58.286-50.857v1.714q0 143.429 85.143 259.429l17.143-75.429 186.286 22.857 79.429 170.286-66.286 39.429q66.857 22.286 137.143 22.286t137.143-22.286l-66.286-39.429 79.429-170.286 186.286-22.857z" /></g></svg>
