<svg xmlns="http://www.w3.org/2000/svg" version="1" width="250pt" height="250pt"><defs><linearGradient id="a"><stop offset="0" stop-color="#ffe51a"/><stop offset="1" stop-color="#e60000" stop-opacity="0"/></linearGradient><linearGradient id="b"><stop offset="0" stop-color="#fff"/><stop offset="1" stop-opacity=".478"/></linearGradient><mask id="c"><path d="M305 156.5a148.5 148.5 0 1 1-297 0 148.5 148.5 0 1 1 297 0z" fill="#fff" fill-rule="evenodd" stroke-width="1.505" stroke-linecap="round" stroke-linejoin="round"/></mask></defs><path d="M305 156.5a148.5 148.5 0 1 1-297 0 148.5 148.5 0 1 1 297 0z" fill="#fff" fill-rule="evenodd"/><g mask="url(#c)"><g fill="none" stroke="#000"><path d="M298.36 109.318c-4.395-6.844-8.636-10.005-17.004-12.11" font-size="12" stroke-width="1.50021442"/><path d="M50 45.375l13.5 13.75M48 92c-30.657 21.956-38.125 66.506-37 66.25M87 95.25c-3.16 23.337 5.25 48.914 22.75 76.25M29.125 206.875C43.552 221.3 62.727 219.085 80.75 219.5M124.628 264.86c-3.123 8.25-2.316 19.683-.53 31.907M103.06 28.42c11.478-11.49 36.096-18.908 68.237-22.274M237.323 50.075C229.336 35.2 215.265 23.51 200.375 12.25M127.986 54.052c17.643 1.988 49.487 4.602 74.777 18.916" font-size="12" stroke-width="1.5"/><path d="M222.5 124c-15.122 20.853-33.378 40.314-54.5 58.5M177.5 238.25c19.358 10.8 40.56 15.445 66.25 11.25M268.5 136.5c9.88 18.552 11.33 44.887 12.75 71.25M277.75 96.75c8.14.274 16.027 4.574 23.5 15.5" stroke-width="1.5"/></g><g fill-rule="evenodd"><path d="M40.25 98c20.654 3.62 29.153 2.16 46.25 3.75 10.107-13.262 27.262-30.048 45.25-47.25-7.424-11.585-14.43-23.44-23.25-30.75-22.39 7.59-38.335 16.94-53.5 26.5C45.482 66.824 40.435 82.76 40.25 98zM198 70.75c6.793 18.67 12.635 35.436 21.25 57.75 17.726 4.68 36.626 10.3 51.25 12.5 4.7-9.437 7.81-27.624 11.25-44-11.68-18.118-28.34-33.746-45.25-49.25-12.436 4.485-25.404 13.23-38.5 23zM106.75 167c22.795 3.75 44.787 7.5 66.25 11.25 6.636 20.833 7.494 41.667 9.75 62.5-16.41 13.636-39.04 17.942-59 26.25-23.226-15.013-32.683-31.748-46-48 7.647-17.586 16.082-35.073 29-52zM1.06 148.805c.033 1.048 8.047 2.226 10.96 1.06 3.347 21.418 7.73 42.146 19.446 57.983-2.294 11.223-.134 20.22 3.182 28.638-20.318 5.695-18.552 8.774-26.516 12.374M75.66 284.393c19.31 5.112 33.38 15.036 48.26 9.9 4.377 6.2 16.487 10.683 48.084 12.02l-85.914 7.6M299.625 212.625c-5.637-4.154-11.47-8.114-18.75-10.625-14.5 19.317-29 41.308-43.5 48.25-.267 11.91-2.123 22.547-7.375 30.47 10.95.737 22.39.697 35-1.22"/></g></g><path d="M305 156.5a148.5 148.5 0 1 1-297 0 148.5 148.5 0 1 1 297 0z" fill="none" stroke="#000" stroke-width="1.4999432" stroke-linecap="round" stroke-linejoin="round"/></svg>